<?xml version="1.0" encoding="UTF-8"?>
<svg version="1.1" xmlns="http://www.w3.org/2000/svg" width="2000" height="2000">
<path d="M0 0 C660 0 1320 0 2000 0 C2000 660 2000 1320 2000 2000 C1340 2000 680 2000 0 2000 C0 1340 0 680 0 0 Z " fill="#FEFEFE" transform="translate(0,0)"/>
<path d="M0 0 C60.61321095 -0.10285488 121.22643181 -0.19824933 181.83970642 -0.25405884 C182.73704812 -0.25488718 183.63438981 -0.25571552 184.55892368 -0.25656897 C204.06138421 -0.27452713 223.56384567 -0.29114812 243.0663085 -0.30639198 C252.63055027 -0.31387588 262.1947918 -0.32165522 271.7590332 -0.32958984 C272.71078146 -0.3303744 273.66252971 -0.33115895 274.64311882 -0.33196728 C305.48246188 -0.3575275 336.3217389 -0.40258947 367.16104197 -0.45778332 C398.85699265 -0.5144072 430.5529068 -0.55131923 462.2489072 -0.56348994 C466.72751189 -0.56521883 471.20611646 -0.56717265 475.68472099 -0.56926346 C476.56615965 -0.569668 477.44759832 -0.57007253 478.35574724 -0.57048933 C492.53465281 -0.57757489 506.71344529 -0.60539037 520.89230477 -0.6409922 C535.15282843 -0.67635545 549.41324018 -0.68979794 563.67380614 -0.68100826 C572.14247963 -0.67645077 580.61074294 -0.68855695 589.07934223 -0.72478526 C594.74344297 -0.74735657 600.40727646 -0.74793194 606.07139596 -0.73099088 C609.29444778 -0.72196973 612.51657524 -0.72552092 615.73957396 -0.74929909 C638.95297992 -0.91056653 654.68790857 3.7631582 671.75 20.375 C682.08971612 31.16557583 691.17441348 42.34089927 696.4375 56.4375 C696.69684326 57.10475098 696.95618652 57.77200195 697.22338867 58.45947266 C701.43857196 70.54715193 698.12662482 82.71256972 695.4375 94.75 C695.07141269 96.43148353 694.70643936 98.11320994 694.3425293 99.79516602 C693.4183866 104.05334821 692.48024573 108.3083071 691.53820801 112.56256104 C690.71203613 116.30413211 689.89888856 120.04850702 689.0859375 123.79296875 C687.65861201 130.35874296 686.21781921 136.92146046 684.77294922 143.48339844 C683.63191939 148.67461562 682.50247996 153.86832571 681.375 159.0625 C681.17406738 159.98780518 680.97313477 160.91311035 680.76611328 161.86645508 C680.37055126 163.68813927 679.97504256 165.50983504 679.57958984 167.33154297 C679.00823672 169.96207779 678.43593024 172.59240325 677.86328125 175.22265625 C677.67161377 176.10332764 677.47994629 176.98399902 677.2824707 177.89135742 C676.88142349 179.73400232 676.48021565 181.57661227 676.07885742 183.41918945 C674.9335029 188.6838091 673.79496645 193.94983068 672.66522217 199.21781921 C671.84073536 203.06218514 671.01451492 206.90617719 670.1875 210.75 C670.01778687 211.53889618 669.84807373 212.32779236 669.67321777 213.14059448 C667.18745627 224.67847063 664.59795945 236.1887752 661.9375 247.6875 C658.93014617 260.68798478 656.15771297 273.72392353 653.50146484 286.80029297 C651.54792195 296.40772669 649.48376126 305.98550275 647.33496094 315.55126953 C645.21814629 324.9826082 643.16372976 334.42654716 641.125 343.875 C640.78540686 345.44742978 640.44580722 347.01985816 640.10620117 348.59228516 C638.54677383 355.81576526 636.99092546 363.04000592 635.43959045 370.26522827 C634.58601384 374.23959613 633.730933 378.213639 632.875 382.1875 C632.70662628 382.96943726 632.53825256 383.75137451 632.36477661 384.55700684 C630.34344983 393.93269334 628.25994344 403.28872367 626.0625 412.625 C623.15039656 425.01982283 620.56722816 437.47986189 617.97640991 449.9447937 C614.69755381 465.71959599 611.31190449 481.46607199 607.83837891 497.19921875 C606.40581727 503.69372068 604.98401196 510.1905728 603.5625 516.6875 C603.41955505 517.34044037 603.27661011 517.99338074 603.1293335 518.66610718 C600.56221607 530.39374822 598.02329692 542.12740481 595.49002075 553.86239624 C592.89540592 565.88027154 590.27726191 577.89276415 587.64453125 589.90234375 C585.58278263 599.31294563 583.54159527 608.72789064 581.50860596 618.14474487 C580.5046277 622.79397266 579.49886501 627.44281486 578.49325562 632.09169006 C577.65967649 635.94605514 576.827244 639.80066162 575.99707031 643.65576172 C575.19433423 647.3829618 574.3883511 651.1094461 573.58007812 654.83544922 C573.28037806 656.21979339 572.98184541 657.60439088 572.68457031 658.98925781 C572.27458546 660.89845503 571.86004567 662.80667238 571.4453125 664.71484375 C571.21344238 665.78855225 570.98157227 666.86226074 570.74267578 667.96850586 C570.49759277 668.96889893 570.25250977 669.96929199 570 671 C569.81083008 672.02303223 569.62166016 673.04606445 569.42675781 674.10009766 C567.28227564 678.45878335 563.99870218 679.64838891 559.7265625 681.68359375 C558.45965073 682.31774452 558.45965073 682.31774452 557.16714478 682.96470642 C555.36657654 683.86536206 553.56206605 684.75817238 551.75402832 685.64373779 C548.18701858 687.40036479 544.65405464 689.21971297 541.11975098 691.04101562 C537.49357361 692.90829469 533.85890102 694.75875006 530.22473145 696.6104126 C525.27601477 699.13204289 520.32944429 701.65787667 515.3828125 704.18359375 C513.90899109 704.93600342 513.90899109 704.93600342 512.40539551 705.70361328 C503.36302651 710.32163834 494.33544039 714.9679697 485.31298828 719.62475586 C477.01064497 723.90953324 468.70118729 728.18000901 460.3828125 732.43359375 C459.01268005 733.13440063 459.01268005 733.13440063 457.61486816 733.84936523 C453.14938309 736.13320771 448.6831894 738.41564583 444.21582031 740.69580078 C442.56822995 741.53783274 440.92076616 742.38011242 439.2734375 743.22265625 C438.0900177 743.82750854 438.0900177 743.82750854 436.88269043 744.44458008 C431.05149668 747.43513858 425.26445644 750.50321869 419.52230835 753.66163635 C415.216036 756 415.216036 756 413 756 C415.03430552 766.1475946 417.25463247 776.22073283 419.8125 786.25 C422.16147953 795.46683455 424.31238645 804.71503528 426.375 814 C428.75545737 824.71031333 431.30055266 835.36568574 434 846 C437.00536528 857.83972208 439.77720948 869.71215356 442.42578125 881.63671875 C444.32193304 890.12630744 446.35662452 898.56962833 448.5 907 C450.97072212 916.71789868 453.26337726 926.46152883 455.4375 936.25 C457.79905371 946.87699169 460.32164719 957.44846548 463 968 C466.00534189 979.83972801 468.77720935 991.71215295 471.42578125 1003.63671875 C473.32193304 1012.12630744 475.35662452 1020.56962833 477.5 1029 C479.97072212 1038.71789868 482.26337726 1048.46152883 484.4375 1058.25 C486.79905618 1068.87700279 489.321949 1079.44838262 492 1090 C495.04032211 1101.98284432 497.86960943 1113.99874802 500.54882812 1126.06738281 C501.84274997 1131.89304726 503.15546924 1137.70911298 504.58203125 1143.50390625 C504.82284424 1144.48399658 505.06365723 1145.46408691 505.31176758 1146.47387695 C505.75634098 1148.26715263 506.20753975 1150.05880467 506.66674805 1151.84838867 C508.10926626 1157.67220122 508.10926626 1157.67220122 507 1161 C504.51221189 1162.40640664 502.07971809 1163.63000789 499.48828125 1164.81640625 C498.70557358 1165.18476089 497.92286591 1165.55311554 497.11643982 1165.93263245 C494.51949727 1167.15217285 491.91606548 1168.35717184 489.3125 1169.5625 C487.49137107 1170.41480473 485.67073913 1171.26817211 483.85058594 1172.12255859 C480.08628963 1173.88825266 476.31968298 1175.64887254 472.55126953 1177.40576172 C465.04738793 1180.90757313 457.56836304 1184.46143097 450.0887146 1188.01461792 C446.15959877 1189.88009556 442.2282904 1191.74093712 438.296875 1193.6015625 C437.13710396 1194.15048409 437.13710396 1194.15048409 435.9539032 1194.710495 C426.89518977 1198.9971573 417.83242102 1203.27523039 408.76940918 1207.55279541 C397.17489988 1213.02528455 385.58590886 1218.50932774 374 1224 C360.92850324 1230.19470648 347.8518226 1236.37830099 334.77050781 1242.55224609 C322.38156453 1248.39971889 309.99913876 1254.26085357 297.61959839 1260.12820435 C288.88602178 1264.26741727 280.15085209 1268.40318193 271.41015625 1272.52734375 C270.62823914 1272.89631271 269.84632202 1273.26528168 269.04071045 1273.64543152 C265.9586765 1275.09964896 262.87659266 1276.55375915 259.79400635 1278.00680542 C252.41982678 1281.48284186 245.05024371 1284.96673647 237.70703125 1288.5078125 C236.62349365 1289.02996338 235.53995605 1289.55211426 234.42358398 1290.09008789 C232.45390685 1291.04140709 230.48584893 1291.99608945 228.51977539 1292.95483398 C227.67535889 1293.36290283 226.83094238 1293.77097168 225.9609375 1294.19140625 C225.23696777 1294.54404541 224.51299805 1294.89668457 223.76708984 1295.26000977 C222 1296 222 1296 220 1296 C219.80889648 1295.23034912 219.61779297 1294.46069824 219.42089844 1293.66772461 C214.81342947 1275.06500654 214.81342947 1275.06500654 209.953125 1256.52734375 C208.82602463 1252.35614853 207.7236161 1248.17877203 206.625 1244 C206.4172998 1243.21036865 206.20959961 1242.4207373 205.99560547 1241.60717773 C204.06492244 1234.25989687 202.14901738 1226.90877347 200.2331543 1219.55761719 C197.83723469 1210.36774642 195.42097946 1201.18329528 193 1192 C190.06140824 1180.85329005 187.13755357 1169.70288725 184.23071289 1158.54785156 C182.66184833 1152.52976551 181.0852665 1146.51378517 179.5 1140.5 C177.39622814 1132.51923967 175.31165315 1124.53355221 173.23046875 1116.546875 C171.6616687 1110.5291189 170.08518097 1104.51346072 168.5 1098.5 C166.65552321 1091.50288805 164.82469679 1084.50229566 163 1077.5 C160.34932388 1067.32909513 157.67935825 1057.16338153 155 1047 C152.06140824 1035.85329005 149.13755357 1024.70288725 146.23071289 1013.54785156 C144.66184833 1007.52976551 143.0852665 1001.51378517 141.5 995.5 C139.39622814 987.51923967 137.31165315 979.53355221 135.23046875 971.546875 C133.6616687 965.5291189 132.08518097 959.51346072 130.5 953.5 C128.65552321 946.50288805 126.82469679 939.50229566 125 932.5 C122.34932388 922.32909513 119.67935825 912.16338153 117 902 C114.06140824 890.85329005 111.13755357 879.70288725 108.23071289 868.54785156 C106.66184833 862.52976551 105.0852665 856.51378517 103.5 850.5 C101.39622814 842.51923967 99.31165315 834.53355221 97.23046875 826.546875 C95.6616687 820.5291189 94.08518097 814.51346072 92.5 808.5 C90.39622814 800.51923967 88.31165315 792.53355221 86.23046875 784.546875 C84.6616687 778.5291189 83.08518097 772.51346072 81.5 766.5 C79.65552321 759.50288805 77.82469679 752.50229566 76 745.5 C73.34932388 735.32909513 70.67935825 725.16338153 68 715 C57.33988842 674.56390631 57.33988842 674.56390631 54 661 C68.48506705 653.28912712 83.11364587 645.89982635 97.81152344 638.60449219 C100.60440929 637.21728435 103.39596565 635.82742506 106.1875 634.4375 C106.99227783 634.03926025 107.79705566 633.64102051 108.6262207 633.23071289 C114.42136527 630.34483932 120.1496785 627.34281421 125.87109375 624.31445312 C135.21204945 619.37742776 144.63738682 614.62193094 154.09576416 609.91453552 C156.96833577 608.48479478 159.83953566 607.05232967 162.71044922 605.6192627 C169.83293642 602.06460532 176.95763065 598.51438069 184.08227539 594.96405029 C190.13606171 591.94712745 196.18896648 588.92844847 202.24078369 585.90757751 C205.03061422 584.51583553 207.8216631 583.12656059 210.61279297 581.73742676 C219.89336222 577.11034409 229.11723269 572.39410018 238.2823019 567.54210854 C245.30078851 563.82877325 252.37199914 560.2334093 259.47265625 556.6796875 C260.74111002 556.04384507 262.0095369 555.40794899 263.27793884 554.77200317 C265.88585511 553.46510675 268.4945466 552.15977383 271.10375977 550.85546875 C274.44905403 549.18287342 277.79151479 547.50469228 281.13338566 545.8252697 C283.7287268 544.5220655 286.32585687 543.22245959 288.92352104 541.92389297 C290.1589738 541.30557737 291.39377962 540.68596736 292.62791634 540.06502914 C294.33346682 539.20738562 296.04178704 538.3552567 297.75024414 537.50341797 C298.7188588 537.01839813 299.68747345 536.5333783 300.68544006 536.03366089 C303 535 303 535 305 535 C305.114646 534.27514404 305.22929199 533.55028809 305.34741211 532.8034668 C306.54262397 525.42064847 307.96993196 518.11896608 309.5625 510.8125 C309.94559326 509.03927368 309.94559326 509.03927368 310.33642578 507.23022461 C313.042197 494.73648886 315.79418171 482.25276604 318.5390625 469.76757812 C321.06279132 458.28598997 323.57548018 446.80210012 326.0625 435.3125 C326.22488159 434.56254761 326.38726318 433.81259521 326.55456543 433.03991699 C328.9522591 421.95572166 331.29223277 410.86005524 333.61325073 399.75958252 C336.18798236 387.44773148 338.83294198 375.16372153 341.70922852 362.91796875 C344.85977823 349.44504164 347.72318933 335.90855004 350.62747192 322.38088989 C351.90375745 316.43821317 353.19948125 310.49991765 354.5 304.5625 C355.9826539 297.78628357 357.42134419 291.00162862 358.8359375 284.2109375 C359.17511885 282.58650479 359.51431172 280.96207448 359.85351562 279.33764648 C360.50471439 276.21819062 361.15132992 273.09783941 361.79492188 269.97680664 C364.93607147 254.91143221 368.49907552 240.00396205 372 225 C296.1 225 220.2 225 142 225 C141.67 228.3 141.34 231.6 141 235 C140.46380301 237.85856732 139.89603735 240.67214312 139.25 243.50390625 C139.07616791 244.28809937 138.90233582 245.07229248 138.72323608 245.88024902 C138.15412332 248.442213 137.57703541 251.00231 137 253.5625 C136.59525218 255.37868821 136.19112977 257.1950159 135.78759766 259.01147461 C134.94837998 262.78683934 134.10648014 266.561591 133.26269531 270.3359375 C131.46644972 278.38063778 129.70342508 286.4326017 127.93991089 294.48452759 C127.37360073 297.06888559 126.80624134 299.65301102 126.23852539 302.23706055 C124.53855539 309.97549982 122.84230241 317.71469637 121.16015625 325.45703125 C118.00571469 339.96484773 114.759966 354.44702717 111.42410278 368.91400146 C108.84678366 380.10917837 106.44021676 391.32756351 104.14379883 402.58422852 C101.00912662 417.92472277 97.57268786 433.19646034 94.0546875 448.453125 C93.3693772 451.42698803 92.68445407 454.40093979 92 457.375 C91.82907837 458.11752014 91.65815674 458.86004028 91.48205566 459.62506104 C88.88790731 470.91411503 86.45910998 482.22592055 84.14624023 493.57641602 C82.07375627 503.7281462 79.84149142 513.83948535 77.57421875 523.94921875 C76.27812436 529.73261769 75.00558187 535.52082141 73.75074768 541.31329346 C72.99512668 544.79853953 72.22959126 548.28086862 71.4387207 551.75830078 C69.57154241 559.99659659 69.57154241 559.99659659 68.3359375 568.34765625 C67.56897449 574.62970663 66.31462005 579.23639038 61.3046875 583.37109375 C57.28093495 586.30862099 53.0447358 588.84305202 48.74560547 591.35351562 C44.08312267 594.14951278 39.65392516 597.27914572 35.1875 600.375 C33.33312214 601.64092239 31.47764453 602.90523524 29.62109375 604.16796875 C25.86127284 606.73014436 22.10362313 609.29545947 18.34765625 611.86328125 C6.94895873 619.65270453 -4.49306387 627.37132753 -16 635 C-15.30514656 640.66572802 -14.08919161 646.09492184 -12.6875 651.625 C-12.48705078 652.43839844 -12.28660156 653.25179687 -12.08007812 654.08984375 C-10.87625624 658.88276928 -9.52272761 663.60383868 -8.046875 668.3203125 C-5.99183942 674.91094957 -4.252021 681.55781071 -2.5625 688.25 C-0.46616788 696.45201817 1.70259536 704.60795374 4.15600586 712.70996094 C6.21765107 719.58267286 7.97941327 726.52931535 9.76538086 733.4777832 C11.27899527 739.33286297 12.88375836 745.14622918 14.625 750.9375 C16.27365965 756.45744208 17.85983123 761.98741045 19.3125 767.5625 C19.63863281 768.80128906 19.96476562 770.04007813 20.30078125 771.31640625 C21.58096336 778.06060587 21.05006546 783.78338108 19.4609375 790.41796875 C19.29977448 791.10421829 19.13861145 791.79046783 18.9725647 792.49751282 C18.62702565 793.96601769 18.2776756 795.43363028 17.92480469 796.90039062 C16.9804211 800.82889217 16.06562323 804.76429465 15.1484375 808.69921875 C14.87009064 809.88914932 14.87009064 809.88914932 14.58612061 811.1031189 C12.93162478 818.21042533 11.44187628 825.34661871 10 832.5 C7.67829303 843.96232961 5.11619469 855.35629199 2.47949219 866.74902344 C0.19244632 876.64232732 -1.98285834 886.54729005 -4 896.5 C-6.32304987 907.96208124 -8.88379607 919.35625207 -11.52050781 930.74902344 C-13.80755368 940.64232732 -15.98285834 950.54729005 -18 960.5 C-20.17011333 971.20748224 -22.53703703 981.85713197 -25 992.5 C-27.77662963 1004.50079266 -30.39681211 1016.517218 -32.85595703 1028.58789062 C-34.67689166 1037.5066536 -36.61715439 1046.39360243 -38.60986328 1055.27539062 C-40.78964124 1065.00639166 -42.9000617 1074.75154009 -45 1084.5 C-47.30026833 1095.1742819 -49.62029539 1105.84306197 -52 1116.5 C-55.73728782 1133.3177952 -59.35914901 1150.16106418 -63 1167 C-160.02 1167 -257.04 1167 -357 1167 C-355.87675811 1155.76758112 -355.87675811 1155.76758112 -354.87109375 1151.671875 C-354.64502441 1150.72771729 -354.41895508 1149.78355957 -354.18603516 1148.81079102 C-353.93901855 1147.80072998 -353.69200195 1146.79066895 -353.4375 1145.75 C-350.81439796 1134.72218274 -348.42897195 1123.66039147 -346.125 1112.5625 C-343.39915303 1099.45659244 -340.52636764 1086.39499921 -337.50256348 1073.35479736 C-334.81412797 1061.74480478 -332.30364694 1050.1044668 -329.875 1038.4375 C-327.46667396 1026.87367109 -324.98209729 1015.33870509 -322.28857422 1003.8371582 C-320.13013944 994.61336949 -318.05356475 985.37259978 -316 976.125 C-315.82790009 975.35004181 -315.65580017 974.57508362 -315.47848511 973.77664185 C-313.05622361 962.85804678 -310.68486373 951.92943615 -308.35498047 940.99072266 C-306.14932613 930.65217654 -303.89246587 920.32514441 -301.625 910 C-301.43353394 909.12804993 -301.24206787 908.25609985 -301.0447998 907.35772705 C-298.1568558 894.21208995 -295.23937395 881.07316015 -292.31066895 867.93655396 C-290.37914738 859.26853675 -288.46600563 850.59744493 -286.61914062 841.91088867 C-286.12940507 839.62497408 -285.62966439 837.34117631 -285.11914062 835.05981445 C-283.83251632 829.25939638 -282.76135282 823.5103165 -281.96484375 817.62109375 C-281.77100098 816.40687744 -281.5771582 815.19266113 -281.37744141 813.94165039 C-281.01526456 811.65511558 -280.71602252 809.35719998 -280.49755859 807.05249023 C-279.79329982 802.94304167 -278.89267392 799.42150524 -275.40964127 796.80555058 C-273.30845043 795.60162877 -271.17486797 794.52756914 -268.99389648 793.47485352 C-267.74444181 792.84507174 -267.74444181 792.84507174 -266.46974564 792.2025671 C-264.633314 791.27933701 -262.79288196 790.36403319 -260.9491024 789.45556641 C-257.91989477 787.96046306 -254.90419401 786.44069882 -251.89057922 784.91442871 C-245.60450161 781.7350219 -239.30533304 778.58212623 -233.0033083 775.4344914 C-229.81846979 773.84336562 -226.63463273 772.25023795 -223.45062256 770.65745544 C-218.10614416 767.98431395 -212.76083852 765.31283251 -207.41503906 762.64233398 C-201.30237825 759.58871816 -195.19115792 756.53223478 -189.0806849 753.4742437 C-183.76693315 750.81507152 -178.4523763 748.15751349 -173.13718772 745.50121444 C-169.99243908 743.92960552 -166.84793568 742.35751232 -163.70417023 740.78393745 C-151.59779052 734.72526306 -139.47717801 728.69553561 -127.29199219 722.79663086 C-126.36776585 722.34419038 -125.44353951 721.8917499 -124.4913063 721.4255991 C-119.36397118 718.96167183 -114.41756891 717.13805085 -108.9375 715.625 C-105.30194296 713.77021282 -103.50099949 712.25764517 -101.97802734 708.43457031 C-100.11153609 701.8397042 -99.060117 695.10324426 -98.03460693 688.33680725 C-96.9239494 681.1366735 -95.27253379 674.08937781 -93.5836792 667.00646973 C-90.49738061 654.01430564 -87.71621263 640.96981003 -85.07202148 627.8815918 C-82.752915 616.42317542 -80.20668582 605.03053999 -77.55813599 593.64419556 C-74.82322237 581.86240645 -72.32907624 570.04345183 -69.9375 558.1875 C-67.36213361 545.42053703 -64.59705912 532.73133896 -61.57177734 520.06201172 C-59.38742993 510.84513118 -57.43776104 501.59578866 -55.5625 492.3125 C-53.20989538 480.66623642 -50.6879997 469.07344402 -48 457.5 C-45.29292634 445.84323837 -42.75048245 434.16637225 -40.375 422.4375 C-38.39327618 412.65728633 -36.34421771 402.90327571 -34.0625 393.1875 C-31.64639658 382.89635882 -29.35506666 372.58273584 -27.125 362.25 C-26.87231857 361.07988876 -26.87231857 361.07988876 -26.61453247 359.88613892 C-24.71250203 351.06792231 -22.83564035 342.24471261 -20.9921875 333.4140625 C-20.82768097 332.6263295 -20.66317444 331.8385965 -20.49368286 331.0269928 C-20.32931732 330.23989426 -20.16495178 329.45279572 -19.99560547 328.6418457 C-19.66375216 327.05289396 -19.33188366 325.4639454 -19 323.875 C-18.83518127 323.08539886 -18.67036255 322.29579773 -18.50054932 321.48226929 C-15.9794664 309.42442787 -13.28917029 297.41373034 -10.50100708 285.41513062 C-7.59540914 272.88701714 -4.97996663 260.31110058 -2.43664551 247.70498657 C0.0226547 235.53368026 2.66466337 223.42612254 5.56665039 211.35229492 C7.9039116 201.60662831 9.96589394 191.81236047 12 182 C15.75569633 163.93229041 19.51739243 145.87275514 23.6776123 127.89300537 C25.13279948 121.59863278 26.56967358 115.30006309 28 109 C28.41306396 107.18314697 28.41306396 107.18314697 28.83447266 105.32958984 C35.85819961 73.99804296 32.27517391 48.64387271 15.34619141 21.07324219 C11.62061072 15.33555064 7.41383982 9.92838581 3.18579102 4.55541992 C2.06239271 3.08184146 1.02783675 1.54175512 0 0 Z " fill="#000000" transform="translate(1178,498)"/>
<path d="M0 0 C85.56673757 -0.0514072 171.133477 -0.09910719 256.70022583 -0.12702942 C257.96619931 -0.12744359 259.23217279 -0.12785776 260.5365091 -0.12828448 C287.37808212 -0.1370441 314.21965529 -0.1452027 341.0612287 -0.15263903 C354.54465403 -0.15637522 368.02807933 -0.16023014 381.5115046 -0.16419732 C383.54542752 -0.16479507 385.57935044 -0.16538943 387.61327336 -0.16598364 C418.9325535 -0.17516351 450.25183015 -0.18688978 481.57110596 -0.20599365 C482.24449043 -0.20640435 482.9178749 -0.20681505 483.61166496 -0.20723819 C494.4686056 -0.21387529 505.3255461 -0.22072612 516.18248658 -0.22760532 C561.58719101 -0.25637001 606.99189019 -0.27556162 652.39660435 -0.28174497 C658.71093739 -0.28260946 665.02527041 -0.28358637 671.33960342 -0.28463173 C673.2037705 -0.28493513 673.2037705 -0.28493513 675.10559752 -0.28524467 C695.12851826 -0.28879283 715.15141905 -0.30271514 735.17433164 -0.3204961 C755.29343472 -0.33814185 775.41251799 -0.34490794 795.53162853 -0.34050413 C807.49164458 -0.33821863 819.45158823 -0.34433926 831.41159124 -0.36239263 C839.39656147 -0.37362461 847.38148419 -0.37400343 855.36645768 -0.36549544 C859.91894921 -0.36095729 864.47130362 -0.36119671 869.02378057 -0.37464955 C873.16636295 -0.38679827 877.30870133 -0.38510121 881.45128001 -0.37241993 C882.93963987 -0.37027944 884.4280177 -0.37315606 885.91635454 -0.38170573 C907.39016213 -0.49722723 921.98286255 8.99988086 937.0625 23.6875 C949.7382551 36.4337767 960.82718304 53.7421303 961.30859375 72.1484375 C961.18533779 79.24431377 959.76820069 85.76130087 958.0625 92.625 C957.41008276 95.35622703 956.769594 98.09021964 956.12890625 100.82421875 C955.87272018 101.90936516 955.87272018 101.90936516 955.61135864 103.01643372 C953.39803249 112.45235056 951.4631246 121.94708022 949.5 131.4375 C948.73192868 135.13702329 947.9621495 138.83618874 947.19140625 142.53515625 C947.00416992 143.43382416 946.81693359 144.33249207 946.62402344 145.25839233 C944.40718688 155.87397456 942.07909885 166.46410763 939.74609375 177.0546875 C937.97923037 185.07562236 936.24311637 193.10306397 934.51098633 201.13156128 C931.83629824 213.52883002 929.15029848 225.92351174 926.4375 238.3125 C926.29456512 238.96529938 926.15163025 239.61809875 926.00436401 240.29067993 C924.71905211 246.15982033 923.43221068 252.02862535 922.14550781 257.89746094 C921.28408782 261.82738268 920.42302604 265.75738243 919.5625 269.6875 C919.34821854 270.66609482 919.34821854 270.66609482 919.12960815 271.66445923 C916.56242578 283.39265507 914.02341421 295.12686153 911.49002075 306.86239624 C908.89540592 318.88027154 906.27726191 330.89276415 903.64453125 342.90234375 C901.41089186 353.09752026 899.20224926 363.29800129 897 373.5 C894.23576229 386.30543038 891.44977191 399.105835 888.64453125 411.90234375 C886.41089184 422.09752036 884.20227435 432.29800664 882 442.5 C878.88750432 456.91811516 875.74650265 471.32977803 872.58984375 485.73828125 C870.57545819 494.93365635 868.57652873 504.1323664 866.57958984 513.33154297 C866.00823672 515.96207779 865.43593024 518.59240325 864.86328125 521.22265625 C862.95330039 529.99733304 861.04802859 538.77300464 859.15234375 547.55078125 C858.90725319 548.68558929 858.90725319 548.68558929 858.6572113 549.84332275 C858.49100784 550.61287292 858.32480438 551.3824231 858.15356445 552.17529297 C855.0049927 566.75342622 851.8420908 581.32817165 848.64501953 595.89575195 C847.09102381 602.98178961 845.55172328 610.070751 844.03125 617.1640625 C842.20256264 625.69511991 840.35420842 634.22174061 838.49145508 642.74542236 C838.00139293 644.99360985 837.51504324 647.24257573 837.02929688 649.49169922 C836.26410643 653.02740681 835.48310924 656.55927317 834.68994141 660.08880615 C834.26133876 662.01163131 833.84726454 663.93767677 833.43359375 665.86376953 C833.17191406 667.01345215 832.91023438 668.16313477 832.640625 669.34765625 C832.41922852 670.34804932 832.19783203 671.34844238 831.96972656 672.37915039 C830.23302074 677.07289084 826.77650452 679.36218432 822.42179871 681.53297424 C821.50715347 681.99376877 820.59250824 682.45456329 819.65014648 682.92932129 C818.65337891 683.42130005 817.65661133 683.91327881 816.62963867 684.42016602 C815.5735994 684.94928085 814.51756012 685.47839569 813.42951965 686.02354431 C810.53448615 687.47201827 807.63600945 688.91329988 804.73579192 690.3513577 C801.67683268 691.87012986 798.62229781 693.39775094 795.56721497 694.92430115 C790.41747977 697.49594331 785.26482766 700.06165678 780.11010742 702.62329102 C773.5668245 705.87499208 767.02799143 709.13553036 760.49073315 712.39932346 C754.80396238 715.23849323 749.11544116 718.07414978 743.42648149 720.90893054 C741.63470976 721.80183441 739.84309041 722.69504405 738.05147362 723.58825874 C726.60502686 729.2915461 715.14629944 734.95880534 703.5949707 740.44702148 C690.90561196 746.47924957 678.34738259 752.76977974 665.79001617 759.07076073 C662.50526326 760.7182507 659.21912586 762.36297455 655.93310547 764.00793457 C647.62085603 768.16953416 639.31032596 772.33456106 631 776.5 C622.01776145 781.00222607 613.03519057 785.50378264 604.0506382 790.00138998 C600.80735558 791.62507722 597.56448857 793.24958174 594.32269287 794.87623596 C581.49234542 801.31398824 568.63878933 807.68595066 555.67146301 813.84391022 C544.09798138 819.3554534 532.65062688 825.11974468 521.19387436 830.86883163 C517.96517695 832.48829647 514.7350931 834.10499136 511.50512695 835.72192383 C503.33553637 839.81219248 495.16766578 843.90588949 487 848 C478.17174031 852.42523871 469.34314733 856.84980587 460.51257229 861.27042294 C457.32518067 862.86616392 454.13820422 864.46272104 450.95230103 866.06143188 C437.9443146 872.58874586 424.92020804 879.06733388 411.76176453 885.28715515 C402.97177784 889.44908399 394.32575408 893.88323495 385.69799805 898.37011719 C384.85748901 898.68190918 384.85748901 898.68190918 384 899 C382 898 382 898 381.19384766 895.93725586 C380.807854 894.58966187 380.807854 894.58966187 380.4140625 893.21484375 C379.98057495 891.71800049 379.98057495 891.71800049 379.53833008 890.19091797 C379.23693115 889.11729004 378.93553223 888.04366211 378.625 886.9375 C378.31264404 885.8458252 378.00028809 884.75415039 377.6784668 883.62939453 C375.60182484 876.31180654 373.68513695 868.96908101 371.890625 861.578125 C370.7288008 856.9104453 369.40314914 852.29864272 368.0625 847.6796875 C366.86828639 843.54384477 365.71152133 839.39857642 364.5625 835.25 C364.35246338 834.49219238 364.14242676 833.73438477 363.92602539 832.95361328 C363.49757307 831.40726764 363.06926986 829.86088068 362.64111328 828.31445312 C361.59623037 824.5423701 360.5479734 820.77122533 359.5 817 C359.08331654 815.50000467 358.66664988 814.00000466 358.25 812.5 C358.04375 811.7575 357.8375 811.015 357.625 810.25 C355.75 803.5 355.75 803.5 355.12548828 801.25170898 C354.70722756 799.74600305 354.28893309 798.24030649 353.87060547 796.73461914 C352.85305603 793.07199462 351.8360194 789.40922969 350.8203125 785.74609375 C348.39269156 776.99388142 345.95066371 768.24578967 343.5 759.5 C340.85177694 750.04917174 338.21526763 740.59520398 335.59277344 731.13720703 C334.56301566 727.42448067 333.53140773 723.71226827 332.5 720 C331.27258753 715.5822666 330.04542934 711.1644644 328.8203125 706.74609375 C328.62405273 706.03888184 328.42779297 705.33166992 328.22558594 704.60302734 C327.82452462 703.15692412 327.42413615 701.71063413 327.02441406 700.26416016 C325.76020878 695.6994127 324.47026656 691.14276365 323.1640625 686.58984375 C322.84743652 685.47875244 322.53081055 684.36766113 322.20458984 683.22290039 C321.58209939 681.03972606 320.95503625 678.85784882 320.32275391 676.67749023 C320.03577637 675.66759033 319.74879883 674.65769043 319.453125 673.6171875 C319.19692383 672.72628418 318.94072266 671.83538086 318.67675781 670.91748047 C317.83533488 667.29013414 317.44331643 663.69766335 317 660 C317.85501712 659.57318278 317.85501712 659.57318278 318.72730732 659.137743 C332.68832476 652.16834511 346.64819224 645.19664982 360.60683155 638.22249031 C367.35753721 634.84970012 374.10860983 631.47764859 380.8605957 628.10742188 C386.75535379 625.16507452 392.6493734 622.22125366 398.54256171 619.27576339 C401.65412221 617.72062695 404.76601302 616.166161 407.87879372 614.61346817 C424.25635077 606.44547463 424.25635077 606.44547463 440.48144531 597.98071289 C450.69369293 592.54424843 461.11787702 587.55584605 471.54139769 582.54004246 C479.28231844 578.81247232 486.99781955 575.03274208 494.71411884 571.25453436 C502.18938311 567.59452143 509.67203597 563.95216831 517.18139648 560.36254883 C523.20339703 557.48379295 529.20594287 554.5683162 535.18855959 551.60853547 C538.33836613 550.05188706 541.4944948 548.51452751 544.6750927 547.02166176 C558.50137438 541.40136943 558.50137438 541.40136943 568.37472534 531.07400513 C569.60005386 527.42660826 569.87212423 523.84107434 570 520 C570.2879137 518.56958126 570.60336044 517.14380785 570.96972656 515.73144531 C571.19112305 514.60834961 571.41251953 513.48525391 571.640625 512.328125 C571.90489844 511.00975571 572.16922356 509.69139677 572.43359375 508.37304688 C572.56620605 507.70265381 572.69881836 507.03226074 572.83544922 506.34155273 C575.3456309 493.67681393 578.07649617 481.07530085 581 468.5 C583.70774412 456.84340433 586.24952191 445.16635072 588.625 433.4375 C590.60672382 423.65728633 592.65578229 413.90327571 594.9375 404.1875 C600.77735006 379.31326619 605.95663364 354.28655508 611.20385742 329.28198242 C613.56605441 318.02969529 615.97736886 306.78916894 618.44091797 295.55859375 C618.99806705 293.00884601 619.54887585 290.45781105 620.09765625 287.90625 C623.29149537 273.08074777 626.62268353 258.28679889 629.96582031 243.49438477 C630.15833374 242.64168503 630.35084717 241.78898529 630.54919434 240.91044617 C630.91298263 239.29941062 631.2772918 237.68849257 631.64221191 236.07771301 C632.47441327 232.3918013 633.25880882 228.70595592 634 225 C558.43 225.33 482.86 225.66 405 226 C402.36 238.54 399.72 251.08 397 264 C394.40938486 275.81968157 391.78099248 287.62746583 389.0625 299.41796875 C388.37456497 302.40354581 387.6870563 305.38922059 387 308.375 C386.82889709 309.11833588 386.65779419 309.86167175 386.48150635 310.62753296 C383.88753722 321.91576153 381.45894137 333.22674805 379.14624023 344.57641602 C377.06895287 354.75167485 374.83094151 364.88632628 372.55859375 375.01953125 C371.03042665 381.83862565 369.54474213 388.66674525 368.06072998 395.49554443 C365.59568891 406.83528583 363.05910213 418.15577412 360.45056152 429.46337891 C357.52634279 442.13986365 354.74367123 454.82936762 352.14599609 467.57763672 C350.06877779 477.75248569 347.83085063 487.88673153 345.55859375 498.01953125 C344.17864492 504.1772357 342.83267364 510.34205036 341.49267578 516.50854492 C338.62850571 529.68877334 335.69328024 542.85131027 332.6875 556 C332.43108734 557.12305542 332.43108734 557.12305542 332.16949463 558.26879883 C332.00286316 558.99800537 331.83623169 559.72721191 331.66455078 560.47851562 C331.50355896 561.18455933 331.34256714 561.89060303 331.17669678 562.61804199 C330.86263441 563.97923318 330.54268479 565.33908175 330.21636963 566.6973877 C329.59451321 569.29325835 329.01908613 571.83430509 328.71337891 574.48828125 C328.30454896 577.69662291 327.35920807 579.66325071 325.01245117 581.86328125 C322.64880616 583.63108845 320.24197475 585.28005757 317.75634766 586.87109375 C315.88101862 588.07647621 314.03147199 589.31547128 312.18359375 590.5625 C307.25100142 593.88471792 302.28727642 597.15933396 297.32470703 600.43652344 C289.5846237 605.55234662 281.91735887 610.70742614 274.44921875 616.21728516 C270.63034964 618.99692852 266.69685982 621.59434386 262.75 624.1875 C261.24403058 625.17983552 259.73881152 626.1733108 258.234375 627.16796875 C257.16799805 627.87252197 257.16799805 627.87252197 256.08007812 628.59130859 C254.04332309 629.9706603 252.06002071 631.40657765 250.078125 632.86328125 C247 635 247 635 245 635 C245.36351562 636.24910156 245.72703125 637.49820313 246.1015625 638.78515625 C248.8431672 648.26327534 251.48719971 657.75467882 253.9375 667.3125 C256.23684994 676.26814212 258.76336249 685.13878886 261.38989258 694.00341797 C263.7184011 701.91095314 265.82408935 709.86326737 267.87109375 717.84765625 C269.48325008 724.10661613 271.23321152 730.30530551 273.1015625 736.49194336 C275.21796719 743.57460698 277.0454377 750.73069095 278.85742188 757.89648438 C279.975698 762.27461198 281.16365253 766.51429435 282.7421875 770.75 C284.14444564 774.91142208 283.98702476 777.65163286 283 782 C282.62193427 783.93194737 282.24586035 785.86428494 281.87109375 787.796875 C281.39662081 790.11528004 280.9185083 792.43294206 280.4375 794.75 C280.17428955 796.02149902 279.9110791 797.29299805 279.63989258 798.60302734 C277.46523154 809.03249976 275.09166851 819.41184781 272.68557739 829.78991699 C269.7460679 842.49238705 267.02339583 855.23387401 264.375 868 C261.74250201 880.68767742 259.07826462 893.36181021 256.23339844 906.00390625 C254.83891329 912.20755288 253.47211993 918.41622629 252.13671875 924.6328125 C251.97391418 925.39062012 251.81110962 926.14842773 251.64337158 926.92919922 C251.3075559 928.49287044 250.97178171 930.05655057 250.63604736 931.62023926 C247.87471876 944.47873709 245.03003645 957.31254545 242.0625 970.125 C238.56475746 985.23247384 235.3678102 1000.39587245 232.21728516 1015.57910156 C229.96942823 1026.4066775 227.66123765 1037.21500633 225.23339844 1048.00390625 C223.8389133 1054.20755284 222.47211696 1060.41622567 221.13671875 1066.6328125 C220.97386887 1067.39084671 220.81101898 1068.14888092 220.64323425 1068.92988586 C220.30737462 1070.49378636 219.97155463 1072.05769537 219.63577271 1073.62161255 C216.85207948 1086.58374025 213.98242714 1099.51949694 211 1112.4375 C206.7922305 1130.91223797 202.90345704 1149.45857906 199 1168 C101.98 1168 4.96 1168 -95 1168 C-94.39163645 1163.13309158 -93.78360856 1158.55126256 -92.80078125 1153.7890625 C-92.4462085 1152.06731812 -92.4462085 1152.06731812 -92.08447266 1150.31079102 C-91.70234619 1148.48632446 -91.70234619 1148.48632446 -91.3125 1146.625 C-91.0448584 1145.33843506 -90.7772168 1144.05187012 -90.50146484 1142.72631836 C-88.59271903 1133.60223515 -86.52631156 1124.51959068 -84.3918457 1115.44580078 C-82.10980291 1105.66142302 -80.04881987 1095.83517952 -78 1086 C-75.56109598 1074.29431997 -73.03291506 1062.6231342 -70.2890625 1050.984375 C-68.03888094 1041.35456573 -66.01711719 1031.68064874 -64 1022 C-61.56094158 1010.29435004 -59.03291623 998.62313915 -56.2890625 986.984375 C-54.03888094 977.35456573 -52.01711719 967.68064874 -50 958 C-47.56094158 946.29435004 -45.03291623 934.62313915 -42.2890625 922.984375 C-40.03888094 913.35456573 -38.01711719 903.68064874 -36 894 C-33.56094158 882.29435004 -31.03291623 870.62313915 -28.2890625 858.984375 C-26.03888094 849.35456573 -24.01711719 839.68064874 -22 830 C-19.56094158 818.29435004 -17.03291623 806.62313915 -14.2890625 794.984375 C-12.03887704 785.35454906 -10.01754466 775.68057108 -8 766 C-5.54965795 754.24967894 -3.0262521 742.52692945 -0.2890625 730.83935547 C1.86947037 721.61481883 3.94627247 712.37333283 6 703.125 C6.17209991 702.35004181 6.34419983 701.57508362 6.52151489 700.77664185 C8.94408412 689.85665961 11.3177837 678.92706689 13.64501953 667.98632812 C15.10244627 661.14815555 16.58476624 654.31610644 18.08984375 647.48828125 C18.27449188 646.65060211 18.45914001 645.81292297 18.64938354 644.94985962 C19.41784202 641.46470959 20.18650247 637.97960411 20.9552002 634.49450684 C23.77497068 621.69918352 26.51128339 608.88856394 29.1875 596.0625 C31.56489785 584.668558 34.04119241 573.31031678 36.71166992 561.98071289 C38.96192971 552.35220474 40.98313822 542.67942297 43 533 C45.43905842 521.29435004 47.96708377 509.62313915 50.7109375 497.984375 C52.96112296 488.35454906 54.98245534 478.68057108 57 469 C59.45034205 457.24967894 61.9737479 445.52692945 64.7109375 433.83935547 C66.86947037 424.61481883 68.94627247 415.37333283 71 406.125 C71.25814987 404.96256271 71.25814987 404.96256271 71.52151489 403.77664185 C73.94408412 392.85665961 76.3177837 381.92706689 78.64501953 370.98632812 C80.10244627 364.14815555 81.58476624 357.31610644 83.08984375 350.48828125 C83.27449188 349.65060211 83.45914001 348.81292297 83.64938354 347.94985962 C84.41784202 344.46470959 85.18650247 340.97960411 85.9552002 337.49450684 C88.77497068 324.69918352 91.51128339 311.88856394 94.1875 299.0625 C96.56489785 287.668558 99.04119241 276.31031678 101.71166992 264.98071289 C103.96193094 255.35219948 105.98300923 245.67940001 108 236 C110.29348814 224.99566618 112.62984231 214.00927489 115.1875 203.0625 C115.42549316 202.04172363 115.66348633 201.02094727 115.90869141 199.96923828 C116.37341222 197.97734762 116.83825329 195.985485 117.30322266 193.99365234 C118.51395612 188.79182553 119.70697936 183.58658691 120.875 178.375 C121.09051514 177.44437744 121.30603027 176.51375488 121.52807617 175.55493164 C123.81697413 166.27981728 123.81697413 166.27981728 121.48828125 157.41015625 C120.77027344 156.63542969 120.05226563 155.86070312 119.3125 155.0625 C118.4875 154.12664062 117.6625 153.19078125 116.8125 152.2265625 C116.35875 151.71512695 115.905 151.20369141 115.4375 150.67675781 C112.75140269 147.54358589 110.29834905 144.23004764 107.8125 140.9375 C103.18252237 134.8459636 98.51650862 128.78455825 93.8125 122.75 C87.39092753 114.50914321 81.01590044 106.23405691 74.65625 97.9453125 C69.79260269 91.61309636 64.90519801 85.30009723 60 79 C53.51778974 70.67443295 47.07925945 62.31663482 40.65625 53.9453125 C35.79260219 47.61309571 30.90510747 41.30016825 26 35 C18.57192352 25.45703362 11.16653981 15.89797846 3.875 6.25 C3.12992187 5.26515625 2.38484375 4.2803125 1.6171875 3.265625 C0 1 0 1 0 0 Z " fill="#000000" transform="translate(206,502)"/>
</svg>
